Coordinates
nRows=128
nColumns=2
inDegrees=yes
endheader
time	ankle_angle_r	
2.5625	  9.371258	
2.625	  9.384155	
2.6875	  9.371621	
2.75	  9.411766	
2.8125	  9.368896	
2.875	  9.344918	
2.9375	  9.365445	
3	  9.353638	
3.0625	  9.407043	
3.125	  9.384155	
3.1875	  9.373075	
3.25	  9.410314	
3.3125	  9.349096	
3.375	  9.338379	
3.4375	  9.384700	
3.5	  9.384155	
3.5625	  9.384155	
3.625	  9.414673	
3.6875	  9.385790	
3.75	  9.466262	
3.8125	  9.439196	
3.875	  9.457542	
3.9375	  9.445190	
4	  9.429932	
4.0625	  9.499504	
4.125	  9.516035	
4.1875	  9.453364	
4.25	  9.490967	
4.3125	  9.422483	
4.375	  9.346008	
4.4375	  9.369260	
4.5	  9.339106	
4.5625	  9.384155	
4.625	  9.375799	
4.6875	  9.377434	
4.75	  9.412493	
4.8125	  9.338379	
4.875	  9.353638	
4.9375	  9.353638	
5	  9.313674	
5.0625	  9.384155	
5.125	  9.384155	
5.1875	  9.374165	
5.25	  9.414673	
5.3125	  9.328569	
5.375	  9.332566	
5.4375	  9.384155	
5.5	  9.414673	
5.5625	  9.429932	
5.625	  9.494963	
5.6875	  9.464264	
5.75	  9.540377	
5.8125	  9.441739	
5.875	  9.326390	
5.9375	  9.381067	
6	  9.328933	
6.0625	  9.411948	
6.125	  9.368896	
6.1875	  9.384155	
6.25	  9.399414	
6.3125	  9.342375	
6.375	  9.353638	
6.4375	  9.353638	
6.5	  9.352184	
6.5625	  9.387970	
6.625	  9.397234	
6.6875	  9.368896	
6.75	  9.414673	
6.8125	  9.353093	
6.875	  9.384519	
6.9375	  9.383974	
7	  9.414673	
7.0625	  9.491148	
7.125	  9.490603	
7.1875	  9.447371	
7.25	  9.474981	
7.3125	  9.414673	
7.375	  9.446280	
7.4375	  9.398143	
7.5	  9.323120	
7.5625	  9.416307	
7.625	  9.385972	
7.6875	  9.403410	
7.75	  9.425572	
7.8125	  9.336018	
7.875	  9.353638	
7.9375	  9.353638	
8	  9.341286	
8.0625	  9.414673	
8.125	  9.356908	
8.1875	  9.399414	
8.25	  9.411039	
8.3125	  9.334564	
8.375	  9.414673	
8.4375	  9.402139	
8.5	  9.349278	
8.5625	  9.455908	
8.625	  9.480431	
8.6875	  9.460449	
8.75	  9.460449	
8.8125	  9.338379	
8.875	  9.414673	
8.9375	  9.374528	
9	  9.332566	
9.0625	  9.423937	
9.125	  9.393238	
9.1875	  9.408315	
9.25	  9.390695	
9.3125	  9.336562	
9.375	  9.367443	
9.4375	  9.360723	
9.5	  9.337652	
9.5625	  9.415036	
9.625	  9.384155	
9.6875	  9.407225	
9.75	  9.375436	
9.8125	  9.330205	
9.875	  9.391058	
9.9375	  9.384155	
10	  9.401594	
10.0625	  9.399414	
10.125	  9.368896	
10.1875	  9.399414	
10.25	  9.386335	
10.3125	  9.332747	
10.375	  9.373256	
10.4375	  9.368896	
10.5	  9.363811	
